<mxfile host="app.diagrams.net" modified="2023-01-31T08:12:26.339Z" agent="5.0 (X11; Linux x86_64) AppleWebKit/537.36 (KHTML, like Gecko) Chrome/108.0.0.0 Safari/537.36" etag="FM380_TRjAiArv3NWi5g" version="20.8.13" type="github">
  <diagram name="Page-1" id="Ss8nT_QTAZkuLPXq_M_W">
    <mxGraphModel dx="880" dy="421" grid="1" gridSize="10" guides="1" tooltips="1" connect="1" arrows="1" fold="1" page="1" pageScale="1" pageWidth="827" pageHeight="1169" math="0" shadow="0">
      <root>
        <mxCell id="0" />
        <mxCell id="1" parent="0" />
        <mxCell id="_oZPz87K2sDN0j5_pGL2-1" value="Service 1" style="rounded=1;whiteSpace=wrap;html=1;" parent="1" vertex="1">
          <mxGeometry x="140" y="70" width="120" height="60" as="geometry" />
        </mxCell>
        <mxCell id="_oZPz87K2sDN0j5_pGL2-2" value="Service 2" style="rounded=1;whiteSpace=wrap;html=1;" parent="1" vertex="1">
          <mxGeometry x="360" y="70" width="120" height="60" as="geometry" />
        </mxCell>
        <mxCell id="_oZPz87K2sDN0j5_pGL2-3" value="Service 3" style="rounded=1;whiteSpace=wrap;html=1;" parent="1" vertex="1">
          <mxGeometry x="570" y="70" width="120" height="60" as="geometry" />
        </mxCell>
        <mxCell id="_oZPz87K2sDN0j5_pGL2-4" value="Prometheus interface" style="rounded=1;whiteSpace=wrap;html=1;" parent="1" vertex="1">
          <mxGeometry x="360" y="240" width="120" height="60" as="geometry" />
        </mxCell>
        <mxCell id="_oZPz87K2sDN0j5_pGL2-6" value="" style="endArrow=classic;html=1;rounded=0;exitX=0.5;exitY=1;exitDx=0;exitDy=0;entryX=0.375;entryY=-0.05;entryDx=0;entryDy=0;entryPerimeter=0;" parent="1" source="_oZPz87K2sDN0j5_pGL2-1" target="_oZPz87K2sDN0j5_pGL2-4" edge="1">
          <mxGeometry width="50" height="50" relative="1" as="geometry">
            <mxPoint x="390" y="240" as="sourcePoint" />
            <mxPoint x="440" y="190" as="targetPoint" />
          </mxGeometry>
        </mxCell>
        <mxCell id="_oZPz87K2sDN0j5_pGL2-7" value="" style="endArrow=classic;html=1;rounded=0;exitX=0.5;exitY=1;exitDx=0;exitDy=0;" parent="1" source="_oZPz87K2sDN0j5_pGL2-2" edge="1">
          <mxGeometry width="50" height="50" relative="1" as="geometry">
            <mxPoint x="390" y="240" as="sourcePoint" />
            <mxPoint x="420" y="230" as="targetPoint" />
          </mxGeometry>
        </mxCell>
        <mxCell id="_oZPz87K2sDN0j5_pGL2-8" value="" style="endArrow=classic;html=1;rounded=0;exitX=0.5;exitY=1;exitDx=0;exitDy=0;entryX=0.608;entryY=-0.05;entryDx=0;entryDy=0;entryPerimeter=0;" parent="1" source="_oZPz87K2sDN0j5_pGL2-3" target="_oZPz87K2sDN0j5_pGL2-4" edge="1">
          <mxGeometry width="50" height="50" relative="1" as="geometry">
            <mxPoint x="390" y="240" as="sourcePoint" />
            <mxPoint x="440" y="190" as="targetPoint" />
          </mxGeometry>
        </mxCell>
        <mxCell id="_oZPz87K2sDN0j5_pGL2-9" value="Logs with token (with Spring sleuth)" style="text;html=1;align=center;verticalAlign=middle;resizable=0;points=[];autosize=1;strokeColor=none;fillColor=none;" parent="1" vertex="1">
          <mxGeometry x="60" y="155" width="210" height="30" as="geometry" />
        </mxCell>
        <mxCell id="_oZPz87K2sDN0j5_pGL2-12" value="Logs with token (with Spring sleuth)" style="text;html=1;align=center;verticalAlign=middle;resizable=0;points=[];autosize=1;strokeColor=none;fillColor=none;" parent="1" vertex="1">
          <mxGeometry x="309" y="155" width="210" height="30" as="geometry" />
        </mxCell>
        <mxCell id="_oZPz87K2sDN0j5_pGL2-13" value="Logs with token (with Spring sleuth)" style="text;html=1;align=center;verticalAlign=middle;resizable=0;points=[];autosize=1;strokeColor=none;fillColor=none;" parent="1" vertex="1">
          <mxGeometry x="580" y="160" width="210" height="30" as="geometry" />
        </mxCell>
      </root>
    </mxGraphModel>
  </diagram>
</mxfile>
